<?xml version="1.0" encoding="UTF-8"?>
<svg viewBox="0 0 429.88345 178.3493" xmlns="http://www.w3.org/2000/svg">
 <g transform="translate(-125.03 -313.08)" fill-rule="evenodd">
  <path d="m169.33 319.47 7.1916-5.8841 323.62 0.65378 9.153 5.2303 1.1376 113.72-371.58 2.244 24.587-84.586 5.8841-31.382z" fill="#8c8a58" stroke="#000"/>
  <path d="m143.57 454.34 3.9286 36.593h5.7899l4.3365-36.541c-5.1724 1.3476-9.7477 1.6281-14.055-0.05212zm378.86-1.3695 2.9489 35.234c1.3475 1.1909 3.5359 0.91015 6.2283-0.25254l3.8023-34.834c-4.1901 0.79864-8.7894 1.9704-12.98-0.14794z" fill="#242321" stroke="#000"/>
  <path d="m150.37 425.38-1.3076 4.5765-1.3076 17.652 1.9614 9.8068 383.77-1.3076v-26.151l-6.5379-5.2303-370.04 0.65379h-6.5379z" fill="#90905e" stroke="#002300"/>
  <path d="m496.51 357.99v19.416l27.738 48.079 10.171 5.5476-0.92459-55.476-1.8492-9.2459-35.135-8.3213z" fill="#787747" stroke="#000"/>
  <path d="m497.18 358.54 35.658 12.636 0.06971 2.4113 20.278-0.50908-0.0053-4.5765-39.956-13.73-10.859 0.17555-5.1853 3.5919z" fill="#bfbfa1" stroke="#000"/>
  <path d="m166.72 356.08-41.188 13.076 7.1916-1.9614h7.8454l7.1916 5.8841-0.24452-1.7116 32.115-11.524-12.911-3.7632z" fill="#939278" stroke="#000"/>
  <path d="m126.18 369.16v86.954l23.536 1.9614-0.65378-85.646-6.5379-5.8841-13.076-0.65379-3.2689 3.2689z" fill="#858454" stroke="#000"/>
  <path d="m532.4 371.49 2.4007 85.925 15.691-0.65379 3.9227-5.8841-1.0129-82.576c-7.6275-1.2108-10.769-3.083-21.001 3.1886z" fill="#a2a06e" stroke="#000"/>
  <path d="m503.91 382.89 18.46 6.5327 7.1916 7.1916-124.31 1.3076-12.487-12.817 11.065-4.6655 84.895-0.16475 15.181 2.6151z" fill="#bfbc8f" stroke="#002300"/>
  <path d="m403.88 398.85 0.6466 19.69 11.38 6.7322 106.47-1.1954 7.8454-7.8454-0.3538-19.758-125.99 2.3769z" fill="#a7a46f" stroke="#002300"/>
  <path d="m285.7 383.54-11.114 14.383 129.21-0.27081-10.493-12.279-8.821-5.5392-92.286 0.27081-6.497 3.4346z" fill="#b5b285" stroke="#002300"/>
  <path d="m149.06 397.27 0.65378 24.844 7.8454 3.3439 106.21-0.14999 9.4604-4.0392-0.84529-23.074-123.33-0.92459z" fill="#8e8c5b" stroke="#002300"/>
  <path d="m272.28 398.93 0.85245 18.275 8.9279 7.0066 113.12-0.4623 10.243-7.541-1.6541-18.008-131.49 0.72951z" fill="#9b9b66" stroke="#002300"/>
  <path d="m176.02 383.54-15.191 3.2637-11.768 10.461h123.26l12.649-15.264-8.4235-2.388-85.167-0.40405-15.361 4.332z" fill="#9c9b6d" stroke="#002300"/>
  <path d="m183.34 380.83-3.0441-21.885-31.644 12.815-0.39954 23.931 35.088-14.861z" fill="#9c9a6a" stroke="#000"/>
  <path d="m200.13 347.61c0 1.5814-0.73341 2.8649-1.6371 2.8649s-1.6371-1.2835-1.6371-2.8649 0.7334-2.8649 1.6371-2.8649 1.6249 1.2587 1.6369 2.8265m35.606 0.85689c0 1.5814-0.73341 2.8649-1.6371 2.8649s-1.6371-1.2835-1.6371-2.8649 0.7334-2.8649 1.6371-2.8649 1.6249 1.2587 1.6369 2.8265m33.56 1.2662c0 1.5814-0.73341 2.8649-1.6371 2.8649s-1.6371-1.2835-1.6371-2.8649 0.7334-2.8649 1.6371-2.8649 1.6249 1.2587 1.6369 2.8265m32.332-0.37091c0 1.5814-0.73341 2.8649-1.6371 2.8649s-1.6371-1.2835-1.6371-2.8649 0.7334-2.8649 1.6371-2.8649 1.6249 1.2587 1.6369 2.8265m38.471-0.78019c0 1.5814-0.73341 2.8649-1.6371 2.8649s-1.6371-1.2835-1.6371-2.8649 0.7334-2.8649 1.6371-2.8649 1.6249 1.2587 1.6369 2.8265m36.425 0.85689c0 1.5814-0.73341 2.8649-1.6371 2.8649s-1.6371-1.2835-1.6371-2.8649 0.7334-2.8649 1.6371-2.8649 1.6249 1.2587 1.6369 2.8265m29.877 0.44761c0 1.5814-0.73341 2.8649-1.6371 2.8649s-1.6371-1.2835-1.6371-2.8649 0.7334-2.8649 1.6371-2.8649 1.6249 1.2587 1.6369 2.8265m33.969 0.44762c0 1.5814-0.73341 2.8649-1.6371 2.8649s-1.6371-1.2835-1.6371-2.8649 0.7334-2.8649 1.6371-2.8649 1.6249 1.2587 1.6369 2.8265m34.788-1.1894c0 1.5814-0.73341 2.8649-1.6371 2.8649s-1.6371-1.2835-1.6371-2.8649 0.7334-2.8649 1.6371-2.8649 1.6249 1.2587 1.6369 2.8265" fill="#797747"/>
 </g>
</svg>
