<?xml version="1.0" encoding="UTF-8"?>
<svg viewBox="0 0 281.12009 177.0731" xmlns="http://www.w3.org/2000/svg" xmlns:xlink="http://www.w3.org/1999/xlink">
 <defs>
  <filter id="n" x="-.15682" y="-.09718" width="1.3136" height="1.1944">
   <feGaussianBlur stdDeviation=".35938"/>
  </filter>
  <filter id="o" x="-.03436" y="-.11913" width="1.0687" height="1.2383">
   <feGaussianBlur stdDeviation="3.82222"/>
  </filter>
  <linearGradient id="a">
   <stop stop-color="#f2780b" offset="0"/>
   <stop stop-color="#f2780b" stop-opacity="0" offset="1"/>
  </linearGradient>
  <linearGradient id="b">
   <stop stop-color="#db8d07" offset="0"/>
   <stop stop-color="#f8af08" offset="1"/>
  </linearGradient>
  <linearGradient id="c">
   <stop offset="0"/>
   <stop stop-opacity="0" offset="1"/>
  </linearGradient>
  <linearGradient id="i" x2="0" y1="1.605" y2="11.355" gradientUnits="userSpaceOnUse">
   <stop stop-color="#2e3436" offset="0"/>
   <stop stop-color="#2e3436" stop-opacity="0" offset="1"/>
  </linearGradient>
  <linearGradient id="m" x1="242.19" x2="251.45" y1="-46.892" y2="-28.392" gradientUnits="userSpaceOnUse" xlink:href="#c"/>
  <linearGradient id="l" x1="45.085" x2="223.03" gradientUnits="userSpaceOnUse" xlink:href="#b"/>
  <linearGradient id="k" x1="43.71" x2="162.55" gradientUnits="userSpaceOnUse" xlink:href="#b"/>
  <linearGradient id="j" x1="79.065" x2="180.2" gradientUnits="userSpaceOnUse" xlink:href="#b"/>
  <linearGradient id="h" x1="268.39" x2="293.52" y1="17.105" y2="56.605" gradientUnits="userSpaceOnUse" xlink:href="#a"/>
  <linearGradient id="g" x2="0" y1="13.007" y2="57.993" gradientUnits="userSpaceOnUse" xlink:href="#a"/>
  <linearGradient id="f" x1="56.244" x2="80.292" y1="-29.583" y2="18.495" gradientUnits="userSpaceOnUse" xlink:href="#a"/>
  <radialGradient id="e" cx="259.94" cy="30.476" r="14.239" gradientTransform="matrix(-2.6966e-7 1.545 -3.5936 -6.1367e-7 369.45 -385.6)" gradientUnits="userSpaceOnUse" xlink:href="#c"/>
  <radialGradient id="d" cx="41.185" cy="-.66493" r="18.256" gradientTransform="matrix(1 1.6416 -1.8934 1.1534 -1.259 -73.725)" gradientUnits="userSpaceOnUse" xlink:href="#c"/>
 </defs>
 <g transform="translate(-14.366 63.948)">
  <path d="m18.886 59.605 218 49 49-29-207-48-60 28z" fill="#babdb6" filter="url(#o)"/>
  <path d="m207.99 73.878h10.895l-2.9058 26.477-5.8803-1.75-2.1087-24.727z" fill="#2e3436" stroke="#2e3436"/>
  <path d="m214.24 75.628 8.8947-0.25-2.1558 20.727-4.6303 4.25-2.1087-24.727z" fill="#2e3436" stroke="#2e3436"/>
  <path d="m50.741 40.628h9.1447l-2.439 22.435-4.9358-1.4828-1.77-20.952z" fill="#2e3436" stroke="#2e3436"/>
  <path d="m56.241 42.128h9.1447l-3.939 18.685-3.4358 2.2672-1.77-20.952z" fill="#2e3436" stroke="#2e3436"/>
  <path d="m49.285 42.531-28.924-8.7443s-2.3542-49.775 3.3632-53.811c8.0717-5.0448 73.991-14.798 73.991-14.798l-0.67264 29.596-47.758 47.757z" fill="#f8af08" stroke="#000" stroke-width=".97585"/>
  <path d="m94.292-29.583c-7.8263 2.4854-45.751 9.5944-50.312 14.156-2.3762 3.5643-2.7343 41.544-1.6562 57.375l4.625 0.625 44.219-23s2.5201-33.063 3.125-49.156z" fill="url(#f)"/>
  <path d="m163.46 3.3735 2.8284-52.326 4.9498-9.1924-2.8284-1.4142c-14.142-1.0607-57.367-2.5531-64.347-3.8891-12.832 7.9388-12.06 38.738-13.435 60.458l72.832 6.364z" fill="#f8af08" stroke="#000"/>
  <path transform="matrix(2.5172 0 0 2.5172 -612.36 -390.99)" d="m346.38 133.86s-5 0.75-5.5 8.875" fill="none" filter="url(#n)" opacity=".20677" stroke="#f2c766"/>
  <path d="m222.53 78.498-176.95-35.698 1.9142-16.799 173.95 30.406 1.0858 22.092z" fill="url(#l)" stroke="#000"/>
  <path d="m168.97-57.291s-13.612 32.704-10.076 58.336c2.9078 2.8289 5.4801 1e-7 5.4801 1e-7l2.5663-32.572 0.0138-0.1757 0.15553-1.974 1.8605-23.614z" fill="#f2780b" opacity=".62782"/>
  <path d="m261.75-9.3544c0.36373-13.556 6.8872-35.129-3.8891-45.255 0 0-41.366-1e-6 -48.437 0.70711 0 0-21.567-7.7782-30.406-6.364-19.799-6.0104-16.263 67.882-16.263 67.882l95.459 9.1924 7.0711-26.163" fill="#f8af08" stroke="#000"/>
  <path d="m82.854-9.708s-32.88 7.4246-38.184 10.607c-1.7678 1.7678 2.1213 25.456 2.1213 25.456l73.893 12.728 41.366-28.284-3.5355-10.607s-59.751-11.314-75.66-9.8995z" fill="url(#k)" stroke="#000"/>
  <path d="m159.93 2.6664s-32.88 7.4246-38.184 10.607c-1.7678 1.7678 2.1213 25.456 2.1213 25.456l92.985 20.153 22.274-35.709-3.5355-10.607s-59.751-11.314-75.66-9.8995z" fill="url(#j)" stroke="#000"/>
  <path d="m261.04-10.769s-30.406 9.1924-36.062 14.849c-2.8284 4.2426-7.0711 72.125-3.5355 72.832s41.012 5.6569 41.012 5.6569 28.698-19.256 29.698-20.506c1-2 2.8284-62.932 2.8284-67.175-7.0711-4.2426-33.941-5.6569-33.941-5.6569z" fill="#f8af08" stroke="#000"/>
  <path d="m77.197-23.85s-30.406 4.9498-33.941 10.253c-3.5355 2.4749 3e-6 52.679 3e-6 52.679" fill="none" stroke="url(#d)"/>
  <path d="m221.09 29.713s-0.35355 0.17678-3.8891 2.2981c-3.5355 2.4749-0.35355 26.516-0.35355 26.516" fill="none" stroke="#000"/>
  <path d="m129.7 10.445s-6.364 0.88388-10.076 2.2981c-3.5355 2.4749 0.88389 25.986 0.88389 25.986" fill="none" stroke="#000"/>
  <path d="m260.21-52.013c-7.6453 1.2777-23.852-8.2831-14.9 47.241" fill="none" stroke="url(#m)"/>
  <path d="m293.52-2.7471c-7.8263 2.4854-25.983 10.509-30.545 15.07-2.3762 3.5643-5.7343 52.044-4.6562 67.875l4.625 0.625s28.012-18.336 29.012-19.086c1.5-2 0.95942-48.392 1.5643-64.485z" fill="url(#h)"/>
  <path d="m287.92-2.9904s-22.274 9.5459-25.809 14.849c-3.5355 2.4749-0.35355 67.175-0.35355 67.175" fill="none" stroke="url(#e)"/>
  <path transform="translate(15.886 -64.302)" d="m105.08386,101.84996c-.53422-1.56956-1.68655-11.55452-1.84772-16.01061-.20687-5.71914.14115-8.10707 1.22229-8.38688 .56266-.14563.6195.27183.65632,4.82083 .0337,4.16494.93577,13.25454 1.76027,17.7374 .16577.9013.0415,1.19401-.71805,1.6917-.70679.46311-.95413.49712-1.07311.14756z" fill="#f2780b"/>
  <path transform="translate(15.886 -64.302)" d="m201.31 119.92c-0.97126-5.6815-1.1756-19.79-0.31754-21.92 0.20505-0.50911 1.2039-1.437 2.2196-2.062l1.8468-1.1363-0.23609 3.4762c-0.38174 5.6207-0.91561 15.72-0.92291 17.458-5e-3 1.2075-0.30261 2.0766-1.1961 3.4937l-1.1894 1.8863-0.20439-1.1956z" fill="#f2780b"/>
  <path transform="translate(15.886 -64.302)" d="m229.57 56.183c-0.12057-0.99538-0.452-3.5599-0.73651-5.6989-0.8974-6.7468-1.2824-15.61-0.88876-20.458 0.75947-9.3527 2.9956-14.168 7.5062-16.163 1.4977-0.66251 2.495-0.82322 5.1987-0.83776l3.3455-0.01799 0.97457 1.9616c1.9012 3.8266 2.2279 5.8435 2.2311 13.772 3e-3 6.7317-1.1239 20.69-1.8783 23.273-0.20744 0.71014-1.2812 1.1732-7.8867 3.4008l-7.6466 2.5787-0.21922-1.8098z" fill="url(#g)"/>
  <path transform="translate(15.886 -64.302)" d="m28.25 66.157 17.5 3.75 40.25-14.5-9.5-18-1.5 17-7-1s-38.75 10.75-39.75 12.75z" fill="#2e3436" opacity=".31955"/>
  <path d="m44.136 1.605 2.5 19.5 14.5-15.5-17-4z" fill="url(#i)" opacity=".30075"/>
 </g>
</svg>
